<?xml version="1.0" encoding="UTF-8" standalone="no"?>
<!-- Created with Inkscape (http://www.inkscape.org/) -->

<svg
   xmlns:dc="http://purl.org/dc/elements/1.1/"
   xmlns:cc="http://creativecommons.org/ns#"
   xmlns:rdf="http://www.w3.org/1999/02/22-rdf-syntax-ns#"
   xmlns:svg="http://www.w3.org/2000/svg"
   xmlns="http://www.w3.org/2000/svg"
   xmlns:sodipodi="http://sodipodi.sourceforge.net/DTD/sodipodi-0.dtd"
   xmlns:inkscape="http://www.inkscape.org/namespaces/inkscape"
   version="1.1"
   id="svg10"
   width="2049"
   height="1152"
   viewBox="0 0 2049 1152"
   sodipodi:docname="mountain.png.2021_07_07_04_09_39.0.svg"
   inkscape:export-filename="/home/pi/projects/btriz.github.io/images/mountain.png"
   inkscape:export-xdpi="95.900002"
   inkscape:export-ydpi="95.900002"
   inkscape:version="0.92.4 (5da689c313, 2019-01-14)">
  <metadata
     id="metadata16">
    <rdf:RDF>
      <cc:Work
         rdf:about="">
        <dc:format>image/svg+xml</dc:format>
        <dc:type
           rdf:resource="http://purl.org/dc/dcmitype/StillImage" />
        <dc:title></dc:title>
      </cc:Work>
    </rdf:RDF>
  </metadata>
  <defs
     id="defs14" />
  <sodipodi:namedview
     pagecolor="#ffffff"
     bordercolor="#666666"
     borderopacity="1"
     objecttolerance="10"
     gridtolerance="10"
     guidetolerance="10"
     inkscape:pageopacity="0"
     inkscape:pageshadow="2"
     inkscape:window-width="916"
     inkscape:window-height="436"
     id="namedview12"
     showgrid="false"
     inkscape:zoom="0.21744792"
     inkscape:cx="1495.7236"
     inkscape:cy="747.57926"
     inkscape:window-x="331"
     inkscape:window-y="202"
     inkscape:window-maximized="0"
     inkscape:current-layer="svg10" />
  <path
     sodipodi:type="star"
     style="fill:#1c2224;stroke-width:0;stroke-miterlimit:4;stroke-dasharray:none"
     id="path837"
     sodipodi:sides="5"
     sodipodi:cx="229.94012"
     sodipodi:cy="269.02994"
     sodipodi:r1="115.062"
     sodipodi:r2="29.49925"
     sodipodi:arg1="-0.039978687"
     sodipodi:arg2="0.58833984"
     inkscape:flatsided="false"
     inkscape:rounded="0.0192949"
     inkscape:randomized="4.35352"
     d="m 523.86189,464.05112 c -3.14501,0.73228 -573.166832,-3.68374 -571.520127,-4.48362 1.646704,-0.79988 101.264884,167.05644 99.623081,171.29438 C 50.32304,635.09982 628.95152,70.293544 628.99043,70.244621 629.02934,70.195697 27.0059,-9.971948 22.192574,-7.1563825 17.379248,-4.3408169 338.32434,-90.773871 336.15401,-88.51128 333.98368,-86.248689 99.102961,138.86446 99.0341,140.83441 c -0.06886,1.96995 240.23176,-15.50351 241.06648,-14.37298 0.83472,1.13053 -264.266992,-367.85683 -264.879964,-365.96594 -0.612973,1.89088 484.881054,806.29046 482.773574,806.30816 -2.10747,0.0177 -30.98728,-103.48481 -34.1323,-102.75253 z"
     inkscape:transform-center-x="-3.1927331"
     inkscape:transform-center-y="-15.198792"
     transform="matrix(-0.34177914,-0.55176803,0.50251273,-0.30956736,1761.1151,542.33504)" />
  <path
     sodipodi:type="star"
     style="fill:#1c2224;stroke-width:0;stroke-miterlimit:4;stroke-dasharray:none"
     id="path839"
     sodipodi:sides="5"
     sodipodi:cx="206.94611"
     sodipodi:cy="328.81436"
     sodipodi:r1="70.348152"
     sodipodi:r2="18.035648"
     sodipodi:arg1="1.3734008"
     sodipodi:arg2="2.0017193"
     inkscape:flatsided="false"
     inkscape:rounded="0.0192949"
     inkscape:randomized="4.35352"
     d="m 508.593,633.51994 c -0.9922,-0.14242 -238.24557,4.21435 -241.04123,3.65194 -2.79566,-0.5624 46.41918,-329.78664 46.22048,-330.01386 -0.1987,-0.22723 58.95899,-277.021043 59.38024,-276.546752 C 373.57374,31.085559 165.83831,547.98186 167.73724,547.75949 169.63618,547.53711 15.427314,355.72382 16.040316,352.56493 16.653317,349.40604 280.4043,192.21428 278.11755,192.23714 275.83081,192.26001 86.14657,390.42554 87.680726,387.75951 89.214881,385.09348 408.88134,201.21062 407.32796,201.16219 c -1.55338,-0.0484 35.77178,120.26173 35.69939,120.26275 -0.0724,0.001 66.55785,312.23742 65.56565,312.095 z"
     inkscape:transform-center-x="-55.375126"
     inkscape:transform-center-y="5.1019827" />
  <path
     sodipodi:type="star"
     style="fill:#1c2224;stroke-width:0;stroke-miterlimit:4;stroke-dasharray:none"
     id="path843"
     sodipodi:sides="5"
     sodipodi:cx="997.94012"
     sodipodi:cy="623.1377"
     sodipodi:r1="115.24566"
     sodipodi:r2="29.546335"
     sodipodi:arg1="-0.49934672"
     sodipodi:arg2="0.12897181"
     inkscape:flatsided="false"
     inkscape:rounded="0.0192949"
     inkscape:randomized="4.35352"
     d="m 739.06813,1040.5998 c -4.82538,2.5717 -136.66829,-632.91094 -139.94733,-630.15268 -3.27904,2.75826 474.4271,42.56157 475.8528,46.24412 1.4257,3.68255 -41.8303,366.52308 -42.5633,366.34759 -0.7329,-0.1755 406.3557,397.07117 406.726,396.06397 0.3703,-1.0073 -497.74515,-1041.99463 -496.73535,-1039.1533 1.00981,2.84133 -547.06252,372.74494 -543.64352,370.53792 3.41899,-2.20702 431.0623,2.25663 431.17917,1.7007 0.11686,-0.55594 -84.088,-218.80157 -80.07723,-219.55515 4.01077,-0.75358 248.05403,297.74871 248.06671,297.80914 0.0127,0.0604 -254.03257,407.58599 -258.85795,410.15769 z"
     inkscape:transform-center-x="-4.7689087"
     inkscape:transform-center-y="18.92515"
     transform="matrix(0.4982683,-0.16264599,0.16863242,0.51660782,864.66356,725.06241)" />
  <path
     sodipodi:type="star"
     style="fill:#1c2224;stroke-width:0;stroke-miterlimit:4;stroke-dasharray:none"
     id="path869"
     sodipodi:sides="5"
     sodipodi:cx="123.57009"
     sodipodi:cy="969.89673"
     sodipodi:r1="52.02951"
     sodipodi:r2="13.33917"
     sodipodi:arg1="0"
     sodipodi:arg2="0.62831853"
     inkscape:flatsided="false"
     inkscape:rounded="0.0192949"
     inkscape:randomized="4.35352"
     d="m 314.52393,853.28407 c -0.28832,-0.33654 -115.84137,243.95823 -117.1286,242.71623 -1.28723,-1.242 -95.73157,-61.6764 -96.65497,-62.554 -0.923407,-0.8776 -113.460778,-161.26956 -114.015079,-159.56318 -0.554301,1.70638 -26.727969,132.32458 -26.097295,132.37888 0.630675,0.054 121.885052,125.597 122.424806,124.901 0.539755,-0.696 -120.260718,-310.87289 -121.390302,-311.58718 -1.129584,-0.71429 28.5400232,105.33227 28.166301,105.39218 -0.373722,0.0599 110.681309,-64.17165 109.782354,-64.03445 -0.898959,0.13719 98.016775,213.82755 97.980895,214.66055 -0.0359,0.8331 117.2202,-221.9735 116.93189,-222.31003 z"
     inkscape:transform-center-x="-14.000522"
     inkscape:transform-center-y="5.4723184"
     transform="translate(159.34037,6.5036887)" />
  <path
     sodipodi:type="star"
     style="fill:#1c2224;stroke-width:0;stroke-miterlimit:4;stroke-dasharray:none"
     id="path892"
     sodipodi:sides="5"
     sodipodi:cx="864.57483"
     sodipodi:cy="448.38324"
     sodipodi:r1="39.157391"
     sodipodi:r2="10.039055"
     sodipodi:arg1="0.70225693"
     sodipodi:arg2="1.3305755"
     inkscape:flatsided="false"
     inkscape:rounded="0.0192949"
     inkscape:randomized="4.35352"
     d="m 892.48063,333.5954 c -0.091,0.67675 8.33071,289.13347 8.94038,288.97268 0.60967,-0.16079 -96.8516,-113.39412 -97.31495,-113.67001 -0.46335,-0.27589 178.88697,-38.31742 178.85556,-38.34316 -0.0314,-0.0257 -262.49921,-139.58037 -262.02413,-139.04741 0.47508,0.53295 213.82749,252.08388 215.58828,251.89293 1.76079,-0.19095 -94.73759,-218.5138 -96.1162,-219.01789 -1.3786,-0.5041 -10.36365,127.17181 -9.26447,126.42051 1.09919,-0.75129 48.74974,-107.6225 48.50186,-109.4548 -0.24788,-1.83231 94.68993,31.39544 94.69162,31.25518 0.002,-0.14025 -81.76698,-79.68478 -81.85795,-79.00803 z"
     inkscape:transform-center-x="-26.882898"
     inkscape:transform-center-y="-4.2706706"
     transform="matrix(-0.9455533,0.80515105,-0.7724131,-1.0219846,1867.0896,9.3427603)" />
</svg>
